<svg xmlns="http://www.w3.org/2000/svg" viewBox="0 0 490 490"><path d="M486.382 341.346a3.618 3.618 0 0 0 3.618-3.619v-19.029a3.618 3.618 0 0 0-3.618-3.619H3.619A3.62 3.62 0 0 0 0 318.698v19.029a3.62 3.62 0 0 0 3.619 3.619h31.898v34.22H3.619A3.62 3.62 0 0 0 0 379.185v19.029a3.62 3.62 0 0 0 3.619 3.619h482.763a3.618 3.618 0 0 0 3.618-3.619v-19.029a3.618 3.618 0 0 0-3.618-3.619h-31.897v-34.22h31.897zm-392.445 0h120.976v34.22H93.937v-34.22zm302.127 34.219H273.331v-34.22h122.733v34.22zm47.731-287.398h-66.133v30.057a5 5 0 0 1-5 5h-16.158a5 5 0 0 1-5-5V88.167h-66.131c-8.285 0-15 6.716-15 15v158.422c0 8.284 6.715 15 15 15h158.422c8.283 0 15-6.716 15-15V103.167c0-8.284-6.717-15-15-15zm-64.897 133.926a5.49 5.49 0 0 1-4.082 1.81 5.487 5.487 0 0 1-3.688-1.421c-.98-.888-3.924-3.55-3.924-3.55v24.599a5.5 5.5 0 1 1-10.998 0v-24.599l-3.924 3.55a5.475 5.475 0 0 1-3.688 1.421 5.502 5.502 0 0 1-3.691-9.579s8.43-7.544 12.545-11.348c1.17-1.081 2.541-2.021 4.258-2.021 1.715.001 3.088.94 4.258 2.021 4.113 3.804 12.543 11.348 12.543 11.348a5.5 5.5 0 0 1 .391 7.769zm50.748 0a5.486 5.486 0 0 1-4.08 1.81 5.476 5.476 0 0 1-3.688-1.421l-3.924-3.55v24.599a5.5 5.5 0 0 1-10.998 0v-24.599l-3.924 3.55a5.482 5.482 0 0 1-3.688 1.421 5.5 5.5 0 0 1-3.691-9.579s8.43-7.544 12.543-11.348c1.17-1.081 2.543-2.021 4.258-2.021 1.717.001 3.088.94 4.258 2.021 4.115 3.804 12.545 11.348 12.545 11.348a5.5 5.5 0 0 1 .389 7.769zM204.629 88.167h-66.133v30.057a5 5 0 0 1-5 5h-16.158a5 5 0 0 1-5-5V88.167H46.206c-8.284 0-15 6.716-15 15v158.422c0 8.284 6.716 15 15 15h158.423c8.283 0 15-6.716 15-15V103.167c0-8.284-6.717-15-15-15zm-64.898 133.926a5.488 5.488 0 0 1-4.081 1.81 5.483 5.483 0 0 1-3.688-1.421l-3.924-3.55v24.599a5.5 5.5 0 1 1-10.998 0v-24.599l-3.924 3.55a5.478 5.478 0 0 1-3.688 1.421 5.501 5.501 0 0 1-3.691-9.579s8.43-7.544 12.544-11.348c1.17-1.081 2.542-2.021 4.258-2.021 1.716.001 3.088.94 4.258 2.021 4.114 3.804 12.544 11.348 12.544 11.348a5.5 5.5 0 0 1 .39 7.769zm50.748 0a5.486 5.486 0 0 1-4.08 1.81 5.48 5.48 0 0 1-3.688-1.421l-3.924-3.55v24.599a5.5 5.5 0 1 1-10.998 0v-24.599l-3.924 3.55a5.478 5.478 0 0 1-3.688 1.421 5.501 5.501 0 0 1-3.691-9.579s8.43-7.544 12.544-11.348c1.17-1.081 2.542-2.021 4.258-2.021 1.716.001 3.088.94 4.258 2.021 4.114 3.804 12.544 11.348 12.544 11.348a5.498 5.498 0 0 1 .389 7.769z"/></svg>