<svg xmlns="http://www.w3.org/2000/svg" viewBox="0 0 512 512"><path d="M495.304.238H16.696C7.473.238 0 7.711 0 16.934v333.913c0 9.222 7.473 16.693 16.696 16.693h194.892l-40.5 92.592c-5.871 13.437 7.266 27.398 21.011 22.38l28.68-10.44 10.44 28.69c5.024 13.81 24.842 15.168 31.005.929l32.734-75.487 32.733 75.489c5.999 13.843 25.848 13.246 31.005-.929l10.44-28.69 28.68 10.44c13.724 5.016 26.887-8.931 21.011-22.38l-40.5-92.592h116.979c9.217 0 16.696-7.473 16.696-16.696V16.934C512 7.711 504.521.238 495.304.238zM294.957 367.54c-27.619 0-50.087-22.468-50.087-50.087 0-27.619 22.468-50.087 50.087-50.087 27.619 0 50.087 22.468 50.087 50.087-.001 27.619-22.468 50.087-50.087 50.087zM150.261 167.193c-9.223 0-16.696-7.473-16.696-16.696 0-9.223 7.473-16.696 16.696-16.696h211.478c9.223 0 16.696 7.473 16.696 16.696 0 9.223-7.473 16.696-16.696 16.696H150.261zm61.217 50.087c0 9.223-7.473 16.696-16.696 16.696H150.26c-9.223 0-16.696-7.473-16.696-16.696 0-9.223 7.473-16.696 16.696-16.696h44.522c9.223 0 16.696 7.473 16.696 16.696zm233.739 33.391c0 9.223-7.473 16.696-16.696 16.696-9.206 0-16.696 7.49-16.696 16.696 0 9.223-7.473 16.696-16.696 16.696H376.75c-2.518-12.355-7.843-23.667-15.171-33.391h19.712c5.038-14.212 16.321-25.494 30.533-30.533V130.942c-14.212-5.038-25.494-16.321-30.533-30.533H130.707c-5.038 14.212-16.321 25.494-30.533 30.533v105.892c14.212 5.038 25.494 16.209 30.533 30.422h97.625c-7.328 9.725-12.653 21.148-15.171 33.503H116.87c-9.223 0-16.696-7.473-16.696-16.696 0-9.206-7.49-16.696-16.696-16.696-9.223 0-16.696-7.473-16.696-16.696V117.106c0-9.223 7.473-16.696 16.696-16.696 9.206 0 16.696-7.49 16.696-16.696 0-9.223 7.473-16.696 16.696-16.696h278.26c9.223 0 16.696 7.473 16.696 16.696 0 9.206 7.49 16.696 16.696 16.696 9.223 0 16.696 7.473 16.696 16.696v133.565z"/></svg>