<svg xmlns="http://www.w3.org/2000/svg" width="512" height="512" viewBox="0 0 512 512"><path d="M277.739 386.902l-18.075-10.439c1.22-6.639 1.942-13.422 1.942-20.396s-.723-13.742-1.942-20.383l18.058-10.422a16.729 16.729 0 0 0 7.796-10.154 16.706 16.706 0 0 0-1.67-12.686l-21.169-36.672c-4.617-8.002-14.847-10.742-22.849-6.125l-18.013 10.406a113.89 113.89 0 0 0-35.372-20.381v-20.867c0-9.234-7.475-16.721-16.713-16.721H127.38c-9.221 0-16.727 7.486-16.727 16.721v20.867a113.767 113.767 0 0 0-35.342 20.381L57.27 259.625c-8.002-4.617-18.218-1.877-22.835 6.125l-21.17 36.66c-4.616 8-1.875 18.217 6.113 22.834l18.057 10.439c-1.187 6.641-1.924 13.408-1.924 20.383s.737 13.773 1.924 20.416L19.378 386.92c-7.988 4.617-10.729 14.834-6.113 22.834l21.152 36.66a16.808 16.808 0 0 0 10.167 7.795 16.702 16.702 0 0 0 12.686-1.682L75.345 442.1a112.996 112.996 0 0 0 35.31 20.367v20.865c0 9.234 7.506 16.727 16.727 16.727h42.352c9.238 0 16.713-7.492 16.713-16.727v-20.865c13.052-4.648 25.014-11.578 35.342-20.367l18.057 10.428c7.988 4.617 18.218 1.875 22.835-6.113l21.169-36.66c4.614-8.001 1.891-18.232-6.111-22.853zm-129.172 40.286c-39.213 0-71.107-31.914-71.107-71.121s31.895-71.121 71.107-71.121c39.222 0 71.121 31.914 71.121 71.121s-31.899 71.121-71.121 71.121z"/><path d="M148.567 301.365c-30.148 0-54.685 24.535-54.685 54.701 0 30.162 24.536 54.697 54.685 54.697 30.162 0 54.698-24.535 54.698-54.697.001-30.166-24.536-54.701-54.698-54.701zm333.988 13.457c-16.504-17.771-40.075-24.969-62.334-21.379L238.415 97.688c5.215-21.918-.205-45.959-16.69-63.695-14.579-15.682-34.641-22.98-54.462-21.955a6.672 6.672 0 0 0-5.867 4.188 6.75 6.75 0 0 0 1.282 7.119l19.164 20.623a9.579 9.579 0 0 1 2.55 6.846 9.546 9.546 0 0 1-3.05 6.639l-35.533 32.988c-3.85 3.578-9.882 3.354-13.472-.494L113.19 69.32a6.743 6.743 0 0 0-7.01-1.826 6.72 6.72 0 0 0-4.6 5.576c-2.474 19.68 3.269 40.205 17.86 55.891 16.485 17.734 40.043 24.934 62.302 21.344L363.58 346.073c-5.229 21.943.192 45.979 16.695 63.764 14.561 15.637 34.604 22.9 54.425 21.887a6.668 6.668 0 0 0 5.886-4.164 6.731 6.731 0 0 0-1.313-7.141l-19.133-20.607c-3.577-3.83-3.386-9.908.495-13.502l35.507-32.971a9.556 9.556 0 0 1 13.502.5l19.147 20.621c1.795 1.924 4.522 2.648 7.005 1.844a6.871 6.871 0 0 0 4.622-5.576c2.484-19.679-3.303-40.224-17.863-55.906z"/></svg>