<svg style="display:none"><symbol viewBox="0 0 129 129" id="arrow-left"><title>arrow-left</title><path d="M121.3 34.6c-1.6-1.6-4.2-1.6-5.8 0l-51 51.1-51.1-51.1c-1.6-1.6-4.2-1.6-5.8 0-1.6 1.6-1.6 4.2 0 5.8l53.9 53.9c.8.8 1.8 1.2 2.9 1.2 1 0 2.1-.4 2.9-1.2l53.9-53.9c1.7-1.6 1.7-4.2.1-5.8z"/></symbol><symbol viewBox="0 0 129 129" id="arrow-right"><title>arrow-right</title><path d="M121.3 34.6c-1.6-1.6-4.2-1.6-5.8 0l-51 51.1-51.1-51.1c-1.6-1.6-4.2-1.6-5.8 0-1.6 1.6-1.6 4.2 0 5.8l53.9 53.9c.8.8 1.8 1.2 2.9 1.2 1 0 2.1-.4 2.9-1.2l53.9-53.9c1.7-1.6 1.7-4.2.1-5.8z"/></symbol><symbol viewBox="0 0 88.408 88.408" id="icon-1"><title>icon-1</title><path d="M67.41 0H34.256L20.999 47.732h13.284L22.988 88.408h3.979l38.451-47.734H45.939z"/></symbol><symbol viewBox="0 0 490 490" id="icon-2"><title>icon-2</title><path d="M486.382 341.346a3.618 3.618 0 0 0 3.618-3.619v-19.029a3.618 3.618 0 0 0-3.618-3.619H3.619A3.62 3.62 0 0 0 0 318.698v19.029a3.62 3.62 0 0 0 3.619 3.619h31.898v34.22H3.619A3.62 3.62 0 0 0 0 379.185v19.029a3.62 3.62 0 0 0 3.619 3.619h482.763a3.618 3.618 0 0 0 3.618-3.619v-19.029a3.618 3.618 0 0 0-3.618-3.619h-31.897v-34.22h31.897zm-392.445 0h120.976v34.22H93.937v-34.22zm302.127 34.219H273.331v-34.22h122.733v34.22zm47.731-287.398h-66.133v30.057a5 5 0 0 1-5 5h-16.158a5 5 0 0 1-5-5V88.167h-66.131c-8.285 0-15 6.716-15 15v158.422c0 8.284 6.715 15 15 15h158.422c8.283 0 15-6.716 15-15V103.167c0-8.284-6.717-15-15-15zm-64.897 133.926a5.49 5.49 0 0 1-4.082 1.81 5.487 5.487 0 0 1-3.688-1.421c-.98-.888-3.924-3.55-3.924-3.55v24.599a5.5 5.5 0 1 1-10.998 0v-24.599l-3.924 3.55a5.475 5.475 0 0 1-3.688 1.421 5.502 5.502 0 0 1-3.691-9.579s8.43-7.544 12.545-11.348c1.17-1.081 2.541-2.021 4.258-2.021 1.715.001 3.088.94 4.258 2.021 4.113 3.804 12.543 11.348 12.543 11.348a5.5 5.5 0 0 1 .391 7.769zm50.748 0a5.486 5.486 0 0 1-4.08 1.81 5.476 5.476 0 0 1-3.688-1.421l-3.924-3.55v24.599a5.5 5.5 0 0 1-10.998 0v-24.599l-3.924 3.55a5.482 5.482 0 0 1-3.688 1.421 5.5 5.5 0 0 1-3.691-9.579s8.43-7.544 12.543-11.348c1.17-1.081 2.543-2.021 4.258-2.021 1.717.001 3.088.94 4.258 2.021 4.115 3.804 12.545 11.348 12.545 11.348a5.5 5.5 0 0 1 .389 7.769zM204.629 88.167h-66.133v30.057a5 5 0 0 1-5 5h-16.158a5 5 0 0 1-5-5V88.167H46.206c-8.284 0-15 6.716-15 15v158.422c0 8.284 6.716 15 15 15h158.423c8.283 0 15-6.716 15-15V103.167c0-8.284-6.717-15-15-15zm-64.898 133.926a5.488 5.488 0 0 1-4.081 1.81 5.483 5.483 0 0 1-3.688-1.421l-3.924-3.55v24.599a5.5 5.5 0 1 1-10.998 0v-24.599l-3.924 3.55a5.478 5.478 0 0 1-3.688 1.421 5.501 5.501 0 0 1-3.691-9.579s8.43-7.544 12.544-11.348c1.17-1.081 2.542-2.021 4.258-2.021 1.716.001 3.088.94 4.258 2.021 4.114 3.804 12.544 11.348 12.544 11.348a5.5 5.5 0 0 1 .39 7.769zm50.748 0a5.486 5.486 0 0 1-4.08 1.81 5.48 5.48 0 0 1-3.688-1.421l-3.924-3.55v24.599a5.5 5.5 0 1 1-10.998 0v-24.599l-3.924 3.55a5.478 5.478 0 0 1-3.688 1.421 5.501 5.501 0 0 1-3.691-9.579s8.43-7.544 12.544-11.348c1.17-1.081 2.542-2.021 4.258-2.021 1.716.001 3.088.94 4.258 2.021 4.114 3.804 12.544 11.348 12.544 11.348a5.498 5.498 0 0 1 .389 7.769z"/></symbol><symbol viewBox="0 0 47 47" id="icon-3"><title>icon-3</title><path d="M26.198 8.368H10.176a2.137 2.137 0 0 0 0 4.272h16.022a2.136 2.136 0 1 0 0-4.272zm2.136 10.147c0-1.18-.955-2.136-2.137-2.136H10.176a2.137 2.137 0 0 0 0 4.273h16.022a2.136 2.136 0 0 0 2.136-2.137zM18.188 28.663a2.136 2.136 0 0 0 0-4.273h-8.012a2.137 2.137 0 0 0 0 4.273h8.012z"/><path d="M34.314 35.93l-2.241 1.479v5.318H4.301V4.273h27.772v8.442l4.273-7.401V2.136C36.346.956 35.389 0 34.209 0H2.164C.984 0 .028.957.028 2.136v42.729c0 1.18.956 2.136 2.136 2.136h32.045a2.137 2.137 0 0 0 2.138-2.136V33.09l-1.021 1.766a3.22 3.22 0 0 1-1.012 1.074z"/><path d="M46.947 9.894c-.044-.192-.495-1.918-3.213-3.488-2.718-1.569-4.438-1.097-4.628-1.038a1.07 1.07 0 0 0-.604.485L25.15 28.979a1.08 1.08 0 0 0-.142.472l-.5 8.345a1.07 1.07 0 0 0 .531.989c.352.202.785.188 1.123-.033l6.977-4.606c.139-.09.254-.213.337-.356l13.353-23.13c.134-.232.175-.504.118-.766zM28.854 35.055a9.396 9.396 0 0 0-1.191-.809 9.545 9.545 0 0 0-1.297-.628l.149-2.502c.557.073 1.383.299 2.432.903 1.048.605 1.655 1.209 1.999 1.654l-2.092 1.382zm-13.932 3.479c.07.429.565.562.896.7.32.135.702-.121.968-.25 1.63-.793 3.838.139 5.584.139 1.033 0 1.033-1.602 0-1.602-2.036 0-3.73-.515-5.748-.182 0-.117-.043-.275-.169-.49-.377-.645-.857-.828-1.338-.75-.032-.076-.063-.152-.108-.229a.745.745 0 0 0-.5-.352c.563-.984.926-2.025.557-2.867-.113-.256-.434-.387-.692-.397-1.07-.04-1.988 1.083-2.676 1.757-1.721 1.687-3.237 3.602-4.704 5.508-.63.819.763 1.615 1.383.81 1.3-1.688 2.677-3.327 4.159-4.86a26.77 26.77 0 0 1-1.135 1.715c-.57.881.791 1.631 1.383.809a1.8 1.8 0 0 1 .516-.503l-.119.296.006.002c-.031.064-.062.128-.087.189-.358.897.979 1.308 1.465.616.123-.174.237-.36.34-.555-.007.134-.01.314.019.496z"/></symbol><symbol viewBox="0 0 512 512" id="icon-4"><title>icon-4</title><path d="M495.304.238H16.696C7.473.238 0 7.711 0 16.934v333.913c0 9.222 7.473 16.693 16.696 16.693h194.892l-40.5 92.592c-5.871 13.437 7.266 27.398 21.011 22.38l28.68-10.44 10.44 28.69c5.024 13.81 24.842 15.168 31.005.929l32.734-75.487 32.733 75.489c5.999 13.843 25.848 13.246 31.005-.929l10.44-28.69 28.68 10.44c13.724 5.016 26.887-8.931 21.011-22.38l-40.5-92.592h116.979c9.217 0 16.696-7.473 16.696-16.696V16.934C512 7.711 504.521.238 495.304.238zM294.957 367.54c-27.619 0-50.087-22.468-50.087-50.087 0-27.619 22.468-50.087 50.087-50.087 27.619 0 50.087 22.468 50.087 50.087-.001 27.619-22.468 50.087-50.087 50.087zM150.261 167.193c-9.223 0-16.696-7.473-16.696-16.696 0-9.223 7.473-16.696 16.696-16.696h211.478c9.223 0 16.696 7.473 16.696 16.696 0 9.223-7.473 16.696-16.696 16.696H150.261zm61.217 50.087c0 9.223-7.473 16.696-16.696 16.696H150.26c-9.223 0-16.696-7.473-16.696-16.696 0-9.223 7.473-16.696 16.696-16.696h44.522c9.223 0 16.696 7.473 16.696 16.696zm233.739 33.391c0 9.223-7.473 16.696-16.696 16.696-9.206 0-16.696 7.49-16.696 16.696 0 9.223-7.473 16.696-16.696 16.696H376.75c-2.518-12.355-7.843-23.667-15.171-33.391h19.712c5.038-14.212 16.321-25.494 30.533-30.533V130.942c-14.212-5.038-25.494-16.321-30.533-30.533H130.707c-5.038 14.212-16.321 25.494-30.533 30.533v105.892c14.212 5.038 25.494 16.209 30.533 30.422h97.625c-7.328 9.725-12.653 21.148-15.171 33.503H116.87c-9.223 0-16.696-7.473-16.696-16.696 0-9.206-7.49-16.696-16.696-16.696-9.223 0-16.696-7.473-16.696-16.696V117.106c0-9.223 7.473-16.696 16.696-16.696 9.206 0 16.696-7.49 16.696-16.696 0-9.223 7.473-16.696 16.696-16.696h278.26c9.223 0 16.696 7.473 16.696 16.696 0 9.206 7.49 16.696 16.696 16.696 9.223 0 16.696 7.473 16.696 16.696v133.565z"/></symbol><symbol viewBox="0 0 512 512" id="icon-5"><title>icon-5</title><path d="M277.739 386.902l-18.075-10.439c1.22-6.639 1.942-13.422 1.942-20.396s-.723-13.742-1.942-20.383l18.058-10.422a16.729 16.729 0 0 0 7.796-10.154 16.706 16.706 0 0 0-1.67-12.686l-21.169-36.672c-4.617-8.002-14.847-10.742-22.849-6.125l-18.013 10.406a113.89 113.89 0 0 0-35.372-20.381v-20.867c0-9.234-7.475-16.721-16.713-16.721H127.38c-9.221 0-16.727 7.486-16.727 16.721v20.867a113.767 113.767 0 0 0-35.342 20.381L57.27 259.625c-8.002-4.617-18.218-1.877-22.835 6.125l-21.17 36.66c-4.616 8-1.875 18.217 6.113 22.834l18.057 10.439c-1.187 6.641-1.924 13.408-1.924 20.383s.737 13.773 1.924 20.416L19.378 386.92c-7.988 4.617-10.729 14.834-6.113 22.834l21.152 36.66a16.808 16.808 0 0 0 10.167 7.795 16.702 16.702 0 0 0 12.686-1.682L75.345 442.1a112.996 112.996 0 0 0 35.31 20.367v20.865c0 9.234 7.506 16.727 16.727 16.727h42.352c9.238 0 16.713-7.492 16.713-16.727v-20.865c13.052-4.648 25.014-11.578 35.342-20.367l18.057 10.428c7.988 4.617 18.218 1.875 22.835-6.113l21.169-36.66c4.614-8.001 1.891-18.232-6.111-22.853zm-129.172 40.286c-39.213 0-71.107-31.914-71.107-71.121s31.895-71.121 71.107-71.121c39.222 0 71.121 31.914 71.121 71.121s-31.899 71.121-71.121 71.121z"/><path d="M148.567 301.365c-30.148 0-54.685 24.535-54.685 54.701 0 30.162 24.536 54.697 54.685 54.697 30.162 0 54.698-24.535 54.698-54.697.001-30.166-24.536-54.701-54.698-54.701zm333.988 13.457c-16.504-17.771-40.075-24.969-62.334-21.379L238.415 97.688c5.215-21.918-.205-45.959-16.69-63.695-14.579-15.682-34.641-22.98-54.462-21.955a6.672 6.672 0 0 0-5.867 4.188 6.75 6.75 0 0 0 1.282 7.119l19.164 20.623a9.579 9.579 0 0 1 2.55 6.846 9.546 9.546 0 0 1-3.05 6.639l-35.533 32.988c-3.85 3.578-9.882 3.354-13.472-.494L113.19 69.32a6.743 6.743 0 0 0-7.01-1.826 6.72 6.72 0 0 0-4.6 5.576c-2.474 19.68 3.269 40.205 17.86 55.891 16.485 17.734 40.043 24.934 62.302 21.344L363.58 346.073c-5.229 21.943.192 45.979 16.695 63.764 14.561 15.637 34.604 22.9 54.425 21.887a6.668 6.668 0 0 0 5.886-4.164 6.731 6.731 0 0 0-1.313-7.141l-19.133-20.607c-3.577-3.83-3.386-9.908.495-13.502l35.507-32.971a9.556 9.556 0 0 1 13.502.5l19.147 20.621c1.795 1.924 4.522 2.648 7.005 1.844a6.871 6.871 0 0 0 4.622-5.576c2.484-19.679-3.303-40.224-17.863-55.906z"/></symbol><symbol viewBox="0 0 96.124 96.123" id="icon-facebook"><title>icon-facebook</title><path d="M72.089.02L59.624 0C45.62 0 36.57 9.285 36.57 23.656v10.907H24.037a1.96 1.96 0 0 0-1.96 1.961v15.803a1.96 1.96 0 0 0 1.96 1.96H36.57v39.876a1.96 1.96 0 0 0 1.96 1.96h16.352a1.96 1.96 0 0 0 1.96-1.96V54.287h14.654a1.96 1.96 0 0 0 1.96-1.96l.006-15.803a1.963 1.963 0 0 0-1.961-1.961H56.842v-9.246c0-4.444 1.059-6.7 6.848-6.7l8.397-.003a1.96 1.96 0 0 0 1.959-1.96V1.98A1.96 1.96 0 0 0 72.089.02z"/></symbol><symbol viewBox="0 0 96.828 96.827" id="icon-google"><title>icon-google</title><path d="M62.617 0H39.525c-10.29 0-17.413 2.256-23.824 7.552-5.042 4.35-8.051 10.672-8.051 16.912 0 9.614 7.33 19.831 20.913 19.831 1.306 0 2.752-.134 4.028-.253l-.188.457c-.546 1.308-1.063 2.542-1.063 4.468 0 3.75 1.809 6.063 3.558 8.298l.22.283-.391.027c-5.609.384-16.049 1.1-23.675 5.787-9.007 5.355-9.707 13.145-9.707 15.404 0 8.988 8.376 18.06 27.09 18.06 21.76 0 33.146-12.005 33.146-23.863.002-8.771-5.141-13.101-10.6-17.698l-4.605-3.582c-1.423-1.179-3.195-2.646-3.195-5.364 0-2.672 1.772-4.436 3.336-5.992l.163-.165c4.973-3.917 10.609-8.358 10.609-17.964 0-9.658-6.035-14.649-8.937-17.048h7.663a.488.488 0 0 0 .266-.077l6.601-4.15A.5.5 0 0 0 62.617 0zM34.614 91.535c-13.264 0-22.176-6.195-22.176-15.416 0-6.021 3.645-10.396 10.824-12.997 5.749-1.935 13.17-2.031 13.244-2.031 1.257 0 1.889 0 2.893.126 9.281 6.605 13.743 10.073 13.743 16.678-.001 8.414-7.101 13.64-18.528 13.64zm-.125-50.779c-11.132 0-15.752-14.633-15.752-22.468 0-3.984.906-7.042 2.77-9.351 2.023-2.531 5.487-4.166 8.825-4.166 10.221 0 15.873 13.738 15.873 23.233 0 1.498 0 6.055-3.148 9.22-2.117 2.113-5.56 3.532-8.568 3.532zm60.493 4.467H82.814V33.098a.5.5 0 0 0-.5-.5H77.08a.5.5 0 0 0-.5.5v12.125H64.473a.5.5 0 0 0-.5.5v5.304a.5.5 0 0 0 .5.5H76.58V63.73a.5.5 0 0 0 .5.5h5.234c.275 0 .5-.225.5-.5V51.525h12.168a.5.5 0 0 0 .5-.5v-5.302c0-.277-.223-.5-.5-.5z"/></symbol><symbol viewBox="0 0 96.496 96.496" id="icon-vk"><title>icon-vk</title><path d="M92.499 65.178c-2.873-3.446-6.254-6.387-9.453-9.51-2.886-2.815-3.068-4.448-.748-7.697 2.532-3.546 5.255-6.956 7.81-10.486 2.385-3.299 4.823-6.589 6.078-10.539.796-2.513.092-3.623-2.485-4.063-.444-.077-.903-.081-1.355-.081l-15.289-.018c-1.883-.028-2.924.793-3.59 2.462-.899 2.256-1.826 4.51-2.897 6.687-2.43 4.936-5.144 9.707-8.949 13.747-.839.891-1.767 2.017-3.169 1.553-1.754-.64-2.271-3.53-2.242-4.507l-.015-17.647c-.34-2.521-.899-3.645-3.402-4.135l-15.882.003c-2.12 0-3.183.819-4.315 2.145-.653.766-.85 1.263.492 1.517 2.636.5 4.121 2.206 4.515 4.849.632 4.223.588 8.463.224 12.703-.107 1.238-.32 2.473-.811 3.629-.768 1.817-2.008 2.187-3.637 1.069-1.475-1.012-2.511-2.44-3.525-3.874-3.809-5.382-6.848-11.186-9.326-17.285-.716-1.762-1.951-2.83-3.818-2.859a389.727 389.727 0 0 0-13.762.004c-2.76.052-3.583 1.392-2.459 3.894 4.996 11.113 10.557 21.917 17.816 31.759 3.727 5.051 8.006 9.51 13.534 12.67 6.265 3.582 13.009 4.66 20.112 4.328 3.326-.156 4.325-1.021 4.479-4.336.104-2.268.361-4.523 1.48-6.561 1.098-2 2.761-2.381 4.678-1.137.959.623 1.767 1.416 2.53 2.252 1.872 2.048 3.677 4.158 5.62 6.137 2.437 2.48 5.324 3.945 8.954 3.646l14.052.003c2.264-.148 3.438-2.924 2.138-5.451-.913-1.77-2.111-3.346-3.383-4.871z"/></symbol><symbol viewBox="0 0 64 64" id="icon-youtube"><title>icon-youtube</title><g fill="#1D1D1B"><path d="M37.635 41.44c-.542 0-1.088.257-1.635.79v10.999c.547.544 1.093.806 1.635.806.941 0 1.423-.806 1.423-2.434v-7.698c.001-1.632-.482-2.463-1.423-2.463zm11.966 0c-1.093 0-1.642.831-1.642 2.502v1.671h3.274v-1.671c.001-1.671-.546-2.502-1.632-2.502z"/><path d="M56.396 29.049c-2.055-2.139-4.357-2.148-5.414-2.271-7.556-.54-18.889-.54-18.889-.54h-.025s-11.333 0-18.896.54c-1.054.123-3.352.133-5.409 2.271-1.618 1.632-2.147 5.327-2.147 5.327s-.536 4.343-.536 8.685v4.073c0 4.341.536 8.686.536 8.686s.529 3.695 2.147 5.321c2.057 2.139 4.753 2.072 5.952 2.295 4.324.413 18.365.538 18.365.538s11.347-.016 18.903-.562c1.057-.121 3.359-.133 5.414-2.271 1.619-1.626 2.147-5.321 2.147-5.321s.536-4.345.536-8.686v-4.073c0-4.342-.536-8.685-.536-8.685s-.529-3.695-2.148-5.327zM16.979 56.755h-3.642V35.953H9.486v-3.406H20.9v3.406h-3.92v20.802zm12.912 0h-3.278v-1.969c-1.299 1.489-2.54 2.221-3.742 2.221-1.054 0-1.781-.432-2.112-1.346-.178-.546-.286-1.409-.286-2.683V38.717h3.275v13.28c0 .765 0 1.164.024 1.27.083.507.336.769.771.769.658 0 1.341-.507 2.069-1.533V38.717h3.278v18.038zm12.44-5.409c0 1.663-.11 2.866-.331 3.631-.438 1.344-1.313 2.03-2.613 2.03-1.168 0-2.294-.647-3.387-1.999v1.747h-3.277V32.547H36v7.905c1.056-1.299 2.179-1.956 3.387-1.956 1.299 0 2.174.688 2.613 2.036.221.729.331 1.918.331 3.628v7.186zM54.51 48.33h-6.55v3.199c0 1.671.549 2.506 1.673 2.506.806 0 1.275-.44 1.463-1.311.029-.178.073-.908.073-2.219h3.341v.479c0 1.051-.043 1.776-.071 2.106a4.606 4.606 0 0 1-.766 1.955c-.906 1.312-2.25 1.96-3.963 1.96-1.711 0-3.014-.618-3.96-1.853-.696-.902-1.051-2.326-1.051-4.241v-6.319c0-1.927.318-3.333 1.012-4.249.946-1.234 2.249-1.849 3.922-1.849 1.643 0 2.947.614 3.863 1.849.685.916 1.015 2.322 1.015 4.249v3.738zM23.436 24.434v-9.908L27.848-.026h-3.71l-2.503 9.605L19.03-.026h-3.863c.777 2.268 1.581 4.544 2.356 6.816 1.174 3.411 1.91 5.982 2.244 7.735v9.908h3.669zm8.611.251c1.656 0 2.942-.624 3.858-1.864.692-.91 1.029-2.346 1.029-4.287v-6.387c0-1.945-.337-3.367-1.029-4.289-.917-1.25-2.202-1.87-3.858-1.87-1.654 0-2.943.62-3.854 1.87-.707.922-1.034 2.344-1.034 4.289v6.387c0 1.941.327 3.377 1.034 4.287.911 1.24 2.2 1.864 3.854 1.864zm-1.581-13.199c0-1.686.514-2.529 1.581-2.529 1.062 0 1.573.844 1.573 2.529v7.669c0 1.687-.511 2.53-1.573 2.53-1.067 0-1.581-.844-1.581-2.53v-7.669zm18.522 12.948V6.203H45.68v13.935c-.733 1.034-1.427 1.548-2.088 1.548-.445 0-.708-.265-.777-.773-.042-.109-.042-.51-.042-1.285V6.203h-3.299v14.418c0 1.289.108 2.161.293 2.711.332.92 1.068 1.353 2.133 1.353 1.204 0 2.46-.732 3.781-2.24v1.989h3.307z"/></g></symbol></svg>